<svg version="1.1" xmlns="http://www.w3.org/2000/svg" xmlns:xlink="http://www.w3.org/1999/xlink" width="679.341796875" height="394"><defs/><g><g transform="translate(-62,-30) scale(1,1)"><path fill="#ffffff" stroke="none" d="M 308.99162571022725 193.68 C 308.99162571022725 188.886167936 312.87746803517274 185 317.6708984375 185 C 322.46432883982726 185 326.35017116477275 188.886167936 326.35017116477275 193.68 C 326.35017116477275 198.47383206400002 322.46432883982726 202.36 317.6708984375 202.36 C 312.87746803517274 202.36 308.99162571022725 198.47383206400002 308.99162571022725 193.68 Z"/></g><g transform="translate(-62,-30) scale(1,1)"><path fill="none" stroke="#000000" d="M 308.99162571022725 193.68 C 308.99162571022725 188.886167936 312.87746803517274 185 317.6708984375 185 C 322.46432883982726 185 326.35017116477275 188.886167936 326.35017116477275 193.68 C 326.35017116477275 198.47383206400002 322.46432883982726 202.36 317.6708984375 202.36 C 312.87746803517274 202.36 308.99162571022725 198.47383206400002 308.99162571022725 193.68 Z" stroke-miterlimit="10"/></g><g transform="translate(-62,-30) scale(1,1)"><path fill="none" stroke="#000000" d="M 317.6708984375 202.36 L 317.6708984375 219.64" stroke-miterlimit="10"/></g><g transform="translate(-62,-30) scale(1,1)"><path fill="none" stroke="#000000" d="M 308.48108025568183 208.84 L 326.86071661931817 208.84" stroke-miterlimit="10"/></g><g transform="translate(-62,-30) scale(1,1)"><path fill="none" stroke="#000000" d="M 317.6708984375 219.64 L 304.90726207386365 237" stroke-miterlimit="10"/></g><g transform="translate(-62,-30) scale(1,1)"><path fill="none" stroke="#000000" d="M 317.6708984375 219.64 L 330.43453480113635 237" stroke-miterlimit="10"/></g><g transform="translate(-62,-30) scale(1,1)"><g><path fill="none" stroke="none"/><text fill="#000000" stroke="none" font-family="Arial" font-size="13px" font-style="normal" font-weight="bold" text-decoration="none" x="295.273193359375" y="257.5">Usuario</text></g></g><g transform="translate(-62,-30) scale(1,1)"><g><path fill="none" stroke="none"/><text fill="#000000" stroke="none" font-family="Arial" font-size="13px" font-style="normal" font-weight="normal" text-decoration="none" x="280.114990234375" y="272.5">(from Actors)</text></g></g><g transform="translate(-62,-30) scale(1,1)"><path fill="#e2e2e2" stroke="none" d="M 138.97795383522728 193.68 C 138.97795383522728 188.886167936 142.86379616017274 185 147.6572265625 185 C 152.45065696482726 185 156.33649928977272 188.886167936 156.33649928977272 193.68 C 156.33649928977272 198.47383206400002 152.45065696482726 202.36 147.6572265625 202.36 C 142.86379616017274 202.36 138.97795383522728 198.47383206400002 138.97795383522728 193.68 Z"/></g><g transform="translate(-62,-30) scale(1,1)"><path fill="none" stroke="#000000" d="M 138.97795383522728 193.68 C 138.97795383522728 188.886167936 142.86379616017274 185 147.6572265625 185 C 152.45065696482726 185 156.33649928977272 188.886167936 156.33649928977272 193.68 C 156.33649928977272 198.47383206400002 152.45065696482726 202.36 147.6572265625 202.36 C 142.86379616017274 202.36 138.97795383522728 198.47383206400002 138.97795383522728 193.68 Z" stroke-miterlimit="10"/></g><g transform="translate(-62,-30) scale(1,1)"><path fill="none" stroke="#000000" d="M 147.6572265625 202.36 L 147.6572265625 219.64" stroke-miterlimit="10"/></g><g transform="translate(-62,-30) scale(1,1)"><path fill="none" stroke="#000000" d="M 138.46740838068183 208.84 L 156.84704474431817 208.84" stroke-miterlimit="10"/></g><g transform="translate(-62,-30) scale(1,1)"><path fill="none" stroke="#000000" d="M 147.6572265625 219.64 L 134.89359019886365 237" stroke-miterlimit="10"/></g><g transform="translate(-62,-30) scale(1,1)"><path fill="none" stroke="#000000" d="M 147.6572265625 219.64 L 160.42086292613635 237" stroke-miterlimit="10"/></g><g transform="translate(-62,-30) scale(1,1)"><g><path fill="none" stroke="none"/><text fill="#000000" stroke="none" font-family="Arial" font-size="13px" font-style="normal" font-weight="bold" text-decoration="none" x="82.273193359375" y="257.5">Administrador Sistema</text></g></g><g transform="translate(-62,-30) scale(1,1)"><g><path fill="none" stroke="none"/><text fill="#000000" stroke="none" font-family="Arial" font-size="13px" font-style="normal" font-weight="normal" text-decoration="none" x="110.101318359375" y="272.5">(from Actors)</text></g></g><g transform="translate(-62,-30) scale(1,1)"><path fill="#e2e2e2" stroke="none" d="M 307.29020969460225 329.68 C 307.29020969460225 324.886167936 311.17605201954774 321 315.969482421875 321 C 320.76291282420226 321 324.64875514914775 324.886167936 324.64875514914775 329.68 C 324.64875514914775 334.473832064 320.76291282420226 338.36 315.969482421875 338.36 C 311.17605201954774 338.36 307.29020969460225 334.473832064 307.29020969460225 329.68 Z"/></g><g transform="translate(-62,-30) scale(1,1)"><path fill="none" stroke="#000000" d="M 307.29020969460225 329.68 C 307.29020969460225 324.886167936 311.17605201954774 321 315.969482421875 321 C 320.76291282420226 321 324.64875514914775 324.886167936 324.64875514914775 329.68 C 324.64875514914775 334.473832064 320.76291282420226 338.36 315.969482421875 338.36 C 311.17605201954774 338.36 307.29020969460225 334.473832064 307.29020969460225 329.68 Z" stroke-miterlimit="10"/></g><g transform="translate(-62,-30) scale(1,1)"><path fill="none" stroke="#000000" d="M 315.969482421875 338.36 L 315.969482421875 355.64" stroke-miterlimit="10"/></g><g transform="translate(-62,-30) scale(1,1)"><path fill="none" stroke="#000000" d="M 306.77966424005683 344.84 L 325.15930060369317 344.84" stroke-miterlimit="10"/></g><g transform="translate(-62,-30) scale(1,1)"><path fill="none" stroke="#000000" d="M 315.969482421875 355.64 L 303.20584605823865 373" stroke-miterlimit="10"/></g><g transform="translate(-62,-30) scale(1,1)"><path fill="none" stroke="#000000" d="M 315.969482421875 355.64 L 328.73311878551135 373" stroke-miterlimit="10"/></g><g transform="translate(-62,-30) scale(1,1)"><g><path fill="none" stroke="none"/><text fill="#000000" stroke="none" font-family="Arial" font-size="13px" font-style="normal" font-weight="bold" text-decoration="none" x="242.990478515625" y="393.5">Administrador Veterinaria</text></g></g><g transform="translate(-62,-30) scale(1,1)"><g><path fill="none" stroke="none"/><text fill="#000000" stroke="none" font-family="Arial" font-size="13px" font-style="normal" font-weight="normal" text-decoration="none" x="278.41357421875" y="408.5">(from Actors)</text></g></g><g transform="translate(-62,-30) scale(1,1)"><path fill="#e2e2e2" stroke="none" d="M 471.06975071022725 193.68 C 471.06975071022725 188.886167936 474.95559303517274 185 479.7490234375 185 C 484.54245383982726 185 488.42829616477275 188.886167936 488.42829616477275 193.68 C 488.42829616477275 198.47383206400002 484.54245383982726 202.36 479.7490234375 202.36 C 474.95559303517274 202.36 471.06975071022725 198.47383206400002 471.06975071022725 193.68 Z"/></g><g transform="translate(-62,-30) scale(1,1)"><path fill="none" stroke="#000000" d="M 471.06975071022725 193.68 C 471.06975071022725 188.886167936 474.95559303517274 185 479.7490234375 185 C 484.54245383982726 185 488.42829616477275 188.886167936 488.42829616477275 193.68 C 488.42829616477275 198.47383206400002 484.54245383982726 202.36 479.7490234375 202.36 C 474.95559303517274 202.36 471.06975071022725 198.47383206400002 471.06975071022725 193.68 Z" stroke-miterlimit="10"/></g><g transform="translate(-62,-30) scale(1,1)"><path fill="none" stroke="#000000" d="M 479.7490234375 202.36 L 479.7490234375 219.64" stroke-miterlimit="10"/></g><g transform="translate(-62,-30) scale(1,1)"><path fill="none" stroke="#000000" d="M 470.55920525568183 208.84 L 488.93884161931817 208.84" stroke-miterlimit="10"/></g><g transform="translate(-62,-30) scale(1,1)"><path fill="none" stroke="#000000" d="M 479.7490234375 219.64 L 466.98538707386365 237" stroke-miterlimit="10"/></g><g transform="translate(-62,-30) scale(1,1)"><path fill="none" stroke="#000000" d="M 479.7490234375 219.64 L 492.51265980113635 237" stroke-miterlimit="10"/></g><g transform="translate(-62,-30) scale(1,1)"><g><path fill="none" stroke="none"/><text fill="#000000" stroke="none" font-family="Arial" font-size="13px" font-style="normal" font-weight="bold" text-decoration="none" x="424.470458984375" y="257.5">Usuario Veterinaria</text></g></g><g transform="translate(-62,-30) scale(1,1)"><g><path fill="none" stroke="none"/><text fill="#000000" stroke="none" font-family="Arial" font-size="13px" font-style="normal" font-weight="normal" text-decoration="none" x="442.193115234375" y="272.5">(from Actors)</text></g></g><g transform="translate(-62,-30) scale(1,1)"><path fill="#000000" stroke="none" d="M 676.9916257102273 193.68 C 676.9916257102273 188.886167936 680.8774680351727 185 685.6708984375 185 C 690.4643288398273 185 694.3501711647727 188.886167936 694.3501711647727 193.68 C 694.3501711647727 198.47383206400002 690.4643288398273 202.36 685.6708984375 202.36 C 680.8774680351727 202.36 676.9916257102273 198.47383206400002 676.9916257102273 193.68 Z"/></g><g transform="translate(-62,-30) scale(1,1)"><path fill="none" stroke="#000000" d="M 676.9916257102273 193.68 C 676.9916257102273 188.886167936 680.8774680351727 185 685.6708984375 185 C 690.4643288398273 185 694.3501711647727 188.886167936 694.3501711647727 193.68 C 694.3501711647727 198.47383206400002 690.4643288398273 202.36 685.6708984375 202.36 C 680.8774680351727 202.36 676.9916257102273 198.47383206400002 676.9916257102273 193.68 Z" stroke-miterlimit="10"/></g><g transform="translate(-62,-30) scale(1,1)"><path fill="none" stroke="#000000" d="M 685.6708984375 202.36 L 685.6708984375 219.64" stroke-miterlimit="10"/></g><g transform="translate(-62,-30) scale(1,1)"><path fill="none" stroke="#000000" d="M 676.4810802556818 208.84 L 694.8607166193182 208.84" stroke-miterlimit="10"/></g><g transform="translate(-62,-30) scale(1,1)"><path fill="none" stroke="#000000" d="M 685.6708984375 219.64 L 672.9072620738636 237" stroke-miterlimit="10"/></g><g transform="translate(-62,-30) scale(1,1)"><path fill="none" stroke="#000000" d="M 685.6708984375 219.64 L 698.4345348011364 237" stroke-miterlimit="10"/></g><g transform="translate(-62,-30) scale(1,1)"><g><path fill="none" stroke="none"/><text fill="#000000" stroke="none" font-family="Arial" font-size="13px" font-style="normal" font-weight="bold" text-decoration="none" x="664.238037109375" y="257.5">Tiempo</text></g></g><g transform="translate(-62,-30) scale(1,1)"><g><path fill="none" stroke="none"/><text fill="#000000" stroke="none" font-family="Arial" font-size="13px" font-style="normal" font-weight="normal" text-decoration="none" x="648.114990234375" y="272.5">(from Actors)</text></g></g><g transform="translate(-62,-30) scale(1,1)"><path fill="none" stroke="#000000" d="M 224 231 L 271 231" stroke-miterlimit="10"/></g><g transform="translate(-62,-30) scale(1,1)"><path fill="#FFFFFF" stroke="none" d="M 250.6746502847517 239.41903551203197 L 271 231 L 250.6746502847517 222.58096448796803"/></g><g transform="translate(-62,-30) scale(1,1)"><path fill="none" stroke="#000000" d="M 250.6746502847517 239.41903551203197 L 271 231 L 250.6746502847517 222.58096448796803 L 250.6746502847517 239.41903551203197" stroke-miterlimit="10"/></g><g transform="translate(-62,-30) scale(1,1)"><path fill="none" stroke="#000000" d="M 316 319 L 316 279" stroke-miterlimit="10"/></g><g transform="translate(-62,-30) scale(1,1)"><path fill="#FFFFFF" stroke="none" d="M 324.419035512032 299.3253497152483 L 316 279 L 307.580964487968 299.3253497152483"/></g><g transform="translate(-62,-30) scale(1,1)"><path fill="none" stroke="#000000" d="M 324.419035512032 299.3253497152483 L 316 279 L 307.580964487968 299.3253497152483 L 324.419035512032 299.3253497152483" stroke-miterlimit="10"/></g><g transform="translate(-62,-30) scale(1,1)"><path fill="none" stroke="#000000" d="M 415 231 L 364 231" stroke-miterlimit="10"/></g><g transform="translate(-62,-30) scale(1,1)"><path fill="#FFFFFF" stroke="none" d="M 384.3253497152483 222.58096448796803 L 364 231 L 384.3253497152483 239.41903551203197"/></g><g transform="translate(-62,-30) scale(1,1)"><path fill="none" stroke="#000000" d="M 384.3253497152483 222.58096448796803 L 364 231 L 384.3253497152483 239.41903551203197 L 384.3253497152483 222.58096448796803" stroke-miterlimit="10"/></g><g transform="translate(-62,-30) scale(1,1)"><path fill="#a3e0ff" stroke="none" d="M 313.37663547585225 49.68 C 313.37663547585225 44.886167936 317.26247780079774 41 322.055908203125 41 C 326.84933860545226 41 330.73518093039775 44.886167936 330.73518093039775 49.68 C 330.73518093039775 54.473832064 326.84933860545226 58.36 322.055908203125 58.36 C 317.26247780079774 58.36 313.37663547585225 54.473832064 313.37663547585225 49.68 Z"/></g><g transform="translate(-62,-30) scale(1,1)"><path fill="none" stroke="#000000" d="M 313.37663547585225 49.68 C 313.37663547585225 44.886167936 317.26247780079774 41 322.055908203125 41 C 326.84933860545226 41 330.73518093039775 44.886167936 330.73518093039775 49.68 C 330.73518093039775 54.473832064 326.84933860545226 58.36 322.055908203125 58.36 C 317.26247780079774 58.36 313.37663547585225 54.473832064 313.37663547585225 49.68 Z" stroke-miterlimit="10"/></g><g transform="translate(-62,-30) scale(1,1)"><path fill="none" stroke="#000000" d="M 322.055908203125 58.36 L 322.055908203125 75.64" stroke-miterlimit="10"/></g><g transform="translate(-62,-30) scale(1,1)"><path fill="none" stroke="#000000" d="M 312.86609002130683 64.84 L 331.24572638494317 64.84" stroke-miterlimit="10"/></g><g transform="translate(-62,-30) scale(1,1)"><path fill="none" stroke="#000000" d="M 322.055908203125 75.64 L 309.29227183948865 93" stroke-miterlimit="10"/></g><g transform="translate(-62,-30) scale(1,1)"><path fill="none" stroke="#000000" d="M 322.055908203125 75.64 L 334.81954456676135 93" stroke-miterlimit="10"/></g><g transform="translate(-62,-30) scale(1,1)"><g><path fill="none" stroke="none"/><text fill="#000000" stroke="none" font-family="Arial" font-size="13px" font-style="normal" font-weight="bold" text-decoration="none" x="296.40185546875" y="113.5">Anonimo</text></g></g><g transform="translate(-62,-30) scale(1,1)"><g><path fill="none" stroke="none"/><text fill="#000000" stroke="none" font-family="Arial" font-size="13px" font-style="normal" font-weight="normal" text-decoration="none" x="284.5" y="128.5">(from Actors)</text></g></g><g transform="translate(-62,-30) scale(1,1)"><path fill="none" stroke="#000000" d="M 320 135 L 319 183" stroke-miterlimit="10"/></g><g transform="translate(-62,-30) scale(1,1)"><path fill="#FFFFFF" stroke="none" d="M 311.00614386331523 162.5037012105603 L 319 183 L 327.8405619811589 162.85441825468206"/></g><g transform="translate(-62,-30) scale(1,1)"><path fill="none" stroke="#000000" d="M 311.00614386331523 162.5037012105603 L 319 183 L 327.8405619811589 162.85441825468206 L 311.00614386331523 162.5037012105603" stroke-miterlimit="10"/></g></g></svg>