<svg version="1.1" xmlns="http://www.w3.org/2000/svg" xmlns:xlink="http://www.w3.org/1999/xlink" width="508" height="307"><defs/><g><g transform="translate(-102,-62) scale(1,1)"><path fill="#a3e0ff" stroke="none" d="M 145.37663547585228 185.68 C 145.37663547585228 180.886167936 149.26247780079774 177 154.055908203125 177 C 158.84933860545226 177 162.73518093039772 180.886167936 162.73518093039772 185.68 C 162.73518093039772 190.47383206400002 158.84933860545226 194.36 154.055908203125 194.36 C 149.26247780079774 194.36 145.37663547585228 190.47383206400002 145.37663547585228 185.68 Z"/></g><g transform="translate(-102,-62) scale(1,1)"><path fill="none" stroke="#000000" d="M 145.37663547585228 185.68 C 145.37663547585228 180.886167936 149.26247780079774 177 154.055908203125 177 C 158.84933860545226 177 162.73518093039772 180.886167936 162.73518093039772 185.68 C 162.73518093039772 190.47383206400002 158.84933860545226 194.36 154.055908203125 194.36 C 149.26247780079774 194.36 145.37663547585228 190.47383206400002 145.37663547585228 185.68 Z" stroke-miterlimit="10"/></g><g transform="translate(-102,-62) scale(1,1)"><path fill="none" stroke="#000000" d="M 154.055908203125 194.36 L 154.055908203125 211.64" stroke-miterlimit="10"/></g><g transform="translate(-102,-62) scale(1,1)"><path fill="none" stroke="#000000" d="M 144.86609002130683 200.84 L 163.24572638494317 200.84" stroke-miterlimit="10"/></g><g transform="translate(-102,-62) scale(1,1)"><path fill="none" stroke="#000000" d="M 154.055908203125 211.64 L 141.29227183948865 229" stroke-miterlimit="10"/></g><g transform="translate(-102,-62) scale(1,1)"><path fill="none" stroke="#000000" d="M 154.055908203125 211.64 L 166.81954456676135 229" stroke-miterlimit="10"/></g><g transform="translate(-102,-62) scale(1,1)"><g><path fill="none" stroke="none"/><text fill="#000000" stroke="none" font-family="Arial" font-size="13px" font-style="normal" font-weight="bold" text-decoration="none" x="128.40185546875" y="249.5">Anonimo</text></g></g><g transform="translate(-102,-62) scale(1,1)"><g><path fill="none" stroke="none"/><text fill="#000000" stroke="none" font-family="Arial" font-size="13px" font-style="normal" font-weight="normal" text-decoration="none" x="116.5" y="264.5">(from Actors)</text></g></g><g transform="translate(-102,-62) scale(1,1)"><path fill="#C0C0C0" stroke="none" d="M 311 106.5 C 311 91.312168 341.4446336 79 379 79 C 416.5553664 79 447 91.312168 447 106.5 C 447 121.687832 416.5553664 134 379 134 C 341.4446336 134 311 121.687832 311 106.5 Z" opacity="0.2"/></g><g transform="translate(-102,-62) scale(1,1)"><path fill="#ffffff" stroke="none" d="M 304 99.5 C 304 84.312168 334.4446336 72 372 72 C 409.5553664 72 440 84.312168 440 99.5 C 440 114.687832 409.5553664 127 372 127 C 334.4446336 127 304 114.687832 304 99.5 Z"/></g><g transform="translate(-102,-62) scale(1,1)"><path fill="none" stroke="#000000" d="M 304 99.5 C 304 84.312168 334.4446336 72 372 72 C 409.5553664 72 440 84.312168 440 99.5 C 440 114.687832 409.5553664 127 372 127 C 334.4446336 127 304 114.687832 304 99.5 Z" stroke-miterlimit="10"/></g><g transform="translate(-102,-62) scale(1,1)"><g><path fill="none" stroke="none"/><text fill="#000000" stroke="none" font-family="Arial" font-size="13px" font-style="normal" font-weight="bold" text-decoration="none" x="356.095947265625" y="99">Login</text></g></g><g transform="translate(-102,-62) scale(1,1)"><g><path fill="none" stroke="none"/><text fill="#000000" stroke="none" font-family="Arial" font-size="13px" font-style="normal" font-weight="normal" text-decoration="none" x="328.29638671875" y="114">(from Públicos)</text></g></g><g transform="translate(-102,-62) scale(1,1)"><path fill="#C0C0C0" stroke="none" d="M 471 223.5 C 471 208.31216799999999 501.4446336 196 539 196 C 576.5553664 196 607 208.31216799999999 607 223.5 C 607 238.68783200000001 576.5553664 251 539 251 C 501.4446336 251 471 238.68783200000001 471 223.5 Z" opacity="0.2"/></g><g transform="translate(-102,-62) scale(1,1)"><path fill="#ffffff" stroke="none" d="M 464 216.5 C 464 201.31216799999999 494.4446336 189 532 189 C 569.5553664 189 600 201.31216799999999 600 216.5 C 600 231.68783200000001 569.5553664 244 532 244 C 494.4446336 244 464 231.68783200000001 464 216.5 Z"/></g><g transform="translate(-102,-62) scale(1,1)"><path fill="none" stroke="#000000" d="M 464 216.5 C 464 201.31216799999999 494.4446336 189 532 189 C 569.5553664 189 600 201.31216799999999 600 216.5 C 600 231.68783200000001 569.5553664 244 532 244 C 494.4446336 244 464 231.68783200000001 464 216.5 Z" stroke-miterlimit="10"/></g><g transform="translate(-102,-62) scale(1,1)"><g><path fill="none" stroke="none"/><text fill="#000000" stroke="none" font-family="Arial" font-size="13px" font-style="normal" font-weight="bold" text-decoration="none" x="507.79638671875" y="216">Registro</text></g></g><g transform="translate(-102,-62) scale(1,1)"><g><path fill="none" stroke="none"/><text fill="#000000" stroke="none" font-family="Arial" font-size="13px" font-style="normal" font-weight="normal" text-decoration="none" x="488.29638671875" y="231">(from Públicos)</text></g></g><g transform="translate(-102,-62) scale(1,1)"><path fill="#C0C0C0" stroke="none" d="M 311 338.5 C 311 323.312168 341.4446336 311 379 311 C 416.5553664 311 447 323.312168 447 338.5 C 447 353.687832 416.5553664 366 379 366 C 341.4446336 366 311 353.687832 311 338.5 Z" opacity="0.2"/></g><g transform="translate(-102,-62) scale(1,1)"><path fill="#ffffff" stroke="none" d="M 304 331.5 C 304 316.312168 334.4446336 304 372 304 C 409.5553664 304 440 316.312168 440 331.5 C 440 346.687832 409.5553664 359 372 359 C 334.4446336 359 304 346.687832 304 331.5 Z"/></g><g transform="translate(-102,-62) scale(1,1)"><path fill="none" stroke="#000000" d="M 304 331.5 C 304 316.312168 334.4446336 304 372 304 C 409.5553664 304 440 316.312168 440 331.5 C 440 346.687832 409.5553664 359 372 359 C 334.4446336 359 304 346.687832 304 331.5 Z" stroke-miterlimit="10"/></g><g transform="translate(-102,-62) scale(1,1)"><g><path fill="none" stroke="none"/><text fill="#000000" stroke="none" font-family="Arial" font-size="13px" font-style="normal" font-weight="bold" text-decoration="none" x="345.984130859375" y="331">Contacto</text></g></g><g transform="translate(-102,-62) scale(1,1)"><g><path fill="none" stroke="none"/><text fill="#000000" stroke="none" font-family="Arial" font-size="13px" font-style="normal" font-weight="normal" text-decoration="none" x="328.29638671875" y="346">(from Públicos)</text></g></g><g transform="translate(-102,-62) scale(1,1)"><path fill="none" stroke="#000000" d="M 197 198 L 321 128" stroke-miterlimit="10"/></g><g transform="translate(-102,-62) scale(1,1)"><path fill="none" stroke="#000000" d="M 197 222 L 463 217" stroke-miterlimit="10"/></g><g transform="translate(-102,-62) scale(1,1)"><path fill="none" stroke="#000000" d="M 197 244 L 315 303" stroke-miterlimit="10"/></g></g></svg>